<?xml version="1.0" encoding="utf-8"?>
<!-- Generator: Adobe Illustrator 24.1.2, SVG Export Plug-In . SVG Version: 6.00 Build 0)  -->
<svg version="1.1" id="Layer_1" xmlns="http://www.w3.org/2000/svg" xmlns:xlink="http://www.w3.org/1999/xlink" x="0px" y="0px"
	 viewBox="0 0 394.8 385.77" style="enable-background:new 0 0 394.8 385.77;" xml:space="preserve">
<style type="text/css">
	.st0{fill-rule:evenodd;clip-rule:evenodd;fill:#FFFFFF;}
	.st1{fill:#ABA285;}
</style>
<rect class="st0" width="394.8" height="385.77"/>
<path class="st1" d="M173.15,199.49L173.15,199.49l97.25,56.15l22.04-12.72V86.32h-47.25l-36.21,41.1l-7.33,8.32l0,0l-21.64,24.57
	c0,21.57,14.97,22.49,28.56,22.49c3.28,0,5.77-0.08,8.17-0.16c7.76-0.26,14.71-0.49,19.82,1.55c1.31,0.53,2.69,0.78,4.04,0.76
	c1.36-0.01,2.72-0.3,3.99-0.85l-0.01-0.01c1.28-0.56,2.43-1.36,3.38-2.35c0.95-0.99,1.7-2.16,2.19-3.43l2.13-2.65
	c0.94-0.6,1.68-1.42,2.17-2.36c0.51-0.96,0.78-2.05,0.75-3.16c-0.03-1.1-0.35-2.15-0.9-3.08c-0.55-0.92-1.33-1.69-2.29-2.24
	l-0.02-0.02l-42.43-24.49l7.33-8.32l40.49,23.37c2.62,1.48,4.76,3.61,6.27,6.12c1.49,2.5,2.36,5.38,2.44,8.41
	c0.08,3.01-0.63,5.93-1.98,8.49c-1.1,2.08-2.62,3.93-4.49,5.42c-0.98,2.04-2.26,3.89-3.8,5.49c-1.93,2.01-4.26,3.65-6.87,4.78h-0.02
	c-2.61,1.13-5.4,1.72-8.19,1.76c-2.8,0.04-5.6-0.48-8.22-1.54c-2.99-1.2-8.87-1-15.42-0.78c-3.01,0.1-6.14,0.21-8.52,0.21
	c-26.96,0-39.58-8.91-39.51-37.42l22.63-25.76c-7.5-2.75-15.47-2.76-22.68-0.41c-8.45,2.75-15.86,8.72-20.22,17.26
	c-4.36,8.56-4.86,18.07-2.12,26.53c2.74,8.46,8.7,15.87,17.24,20.24l0.26,0.13L173.15,199.49z M223.81,282.55l-121.45-70.12v30.49
	l95.04,54.87L223.81,282.55z M172.34,118.14c6.29-5.94,18.41-10.94,28.01-8.36l-8.31,9.43c2.46,0.69,4.88,1.59,7.26,2.71l31.35-35.6
	H102.36v113.56l132.31,76.39l24.84-14.35l-100.81-58.2c-11.08-5.76-18.83-15.44-22.4-26.47c-3.6-11.11-2.96-23.59,2.76-34.8
	c5.72-11.22,15.45-19.07,26.57-22.68C167.83,119.07,170.07,118.52,172.34,118.14z M303.36,80.87v168.33
	c-35.32,20.38-70.64,40.78-105.96,61.17c-35.32-20.39-70.63-40.8-105.96-61.17V75.41h211.91V80.87z"/>
</svg>
